<svg xmlns="http://www.w3.org/2000/svg" viewBox="0 0 64 64" role="img" aria-labelledby="title desc">
  <title id="title">GPTSub favicon</title>
  <desc id="desc">A compact price comparison mark with a currency table and trend line.</desc>
  <defs>
    <linearGradient id="bg" x1="12" x2="52" y1="8" y2="56" gradientUnits="userSpaceOnUse">
      <stop stop-color="#0f172a"/>
      <stop offset="1" stop-color="#111827"/>
    </linearGradient>
    <linearGradient id="accent" x1="18" x2="48" y1="42" y2="18" gradientUnits="userSpaceOnUse">
      <stop stop-color="#22c55e"/>
      <stop offset=".55" stop-color="#38bdf8"/>
      <stop offset="1" stop-color="#a78bfa"/>
    </linearGradient>
  </defs>
  <rect width="60" height="60" x="2" y="2" fill="url(#bg)" rx="14"/>
  <rect width="42" height="34" x="11" y="15" fill="#f8fafc" rx="8"/>
  <path fill="#e2e8f0" d="M11 24h42v2H11z"/>
  <path fill="#cbd5e1" d="M24 15h2v34h-2zM38 15h2v34h-2zM14 32h36v2H14zM14 40h36v2H14z"/>
  <circle cx="18" cy="20" r="2" fill="#22c55e"/>
  <circle cx="25" cy="20" r="2" fill="#38bdf8"/>
  <circle cx="32" cy="20" r="2" fill="#a78bfa"/>
  <path fill="none" stroke="url(#accent)" stroke-linecap="round" stroke-linejoin="round" stroke-width="5" d="M17 43l9-9 8 5 13-16"/>
  <path fill="#0f172a" d="M28.7 30.6c0-3 2.2-5.1 5.8-5.1 1.6 0 3.1.4 4.2 1.1l-1.2 3.1c-.8-.5-1.9-.8-3-.8-1.2 0-1.8.4-1.8 1.1 0 2 6.6 1.2 6.6 5.8 0 2.6-1.8 4.4-4.9 4.9v2.8h-2.8v-2.7c-1.9-.1-3.7-.7-4.8-1.5l1.2-3.1c1 .7 2.6 1.2 4.2 1.2 1.4 0 2-.4 2-1.1 0-2.1-6.5-1.2-6.5-5.7Z"/>
</svg>
